<svg width="209" height="106" viewBox="0 0 209 106" fill="none" xmlns="http://www.w3.org/2000/svg">
<path d="M11.96 82.856C11.128 82.856 10.424 82.664 9.848 82.28C8.312 81.192 7.544 79.368 7.544 76.808C7.544 74.888 7.896 72.68 8.6 70.184C9.368 67.752 10.296 65.256 11.384 62.696C12.472 60.072 13.592 57.544 14.744 55.112C15.96 52.68 17.016 50.504 17.912 48.584C18.872 46.664 19.512 45.192 19.832 44.168C20.216 43.016 20.408 42.152 20.408 41.576C20.408 40.936 20.184 40.616 19.736 40.616C19.224 40.616 18.456 41.032 17.432 41.864C16.472 42.632 15.512 43.496 14.552 44.456C13.656 45.416 13.016 46.12 12.632 46.568C10.584 48.872 8.728 51.432 7.064 54.248C5.464 57.064 4.472 59.464 4.088 61.448C4.024 61.768 3.896 62.344 3.704 63.176C3.576 64.008 3.288 64.392 2.84 64.328C2.2 64.2 1.752 63.816 1.496 63.176C1.304 62.472 1.176 61.832 1.112 61.256C1.112 60.936 1.08 60.616 1.016 60.296C1.016 59.912 1.016 59.528 1.016 59.144C1.016 56.52 1.272 53.544 1.784 50.216C2.296 46.888 2.968 43.496 3.8 40.04C3.672 40.104 3.384 40.168 2.936 40.232C2.488 40.296 2.072 40.328 1.688 40.328C0.664 40.328 0.152 40.04 0.152 39.464C0.152 39.208 0.376 39.048 0.824 38.984C1.144 38.92 1.752 38.792 2.648 38.6C3.544 38.344 4.12 38.152 4.376 38.024C4.888 35.784 5.464 33.608 6.104 31.496C6.808 29.384 7.48 27.336 8.12 25.352C9.976 20.296 11.96 15.816 14.072 11.912C16.248 7.944 19.384 4.776 23.48 2.408C25.528 1.256 27.48 0.679998 29.336 0.679998C31.32 0.679998 32.952 1.32 34.232 2.6C35.576 3.88 36.248 5.736 36.248 8.168C36.248 11.24 35.48 13.992 33.944 16.424C32.408 18.792 30.712 21.096 28.856 23.336C27.32 25.192 25.528 26.952 23.48 28.616C21.496 30.216 19.48 31.688 17.432 33.032C15.64 34.184 13.848 35.272 12.056 36.296C10.328 37.256 8.536 38.12 6.68 38.888C5.848 41.704 5.112 44.616 4.472 47.624C3.896 50.632 3.48 53.672 3.224 56.744C3.224 56.808 3.192 57.128 3.128 57.704C3.064 58.216 3 58.76 2.936 59.336C2.936 59.848 2.936 60.136 2.936 60.2H3.032C3.16 59.432 3.384 58.696 3.704 57.992C4.088 57.288 4.472 56.616 4.856 55.976C6.136 53.352 7.8 50.664 9.848 47.912C11.896 45.16 13.976 42.888 16.088 41.096C16.664 40.584 17.496 40.072 18.584 39.56C19.736 38.984 20.824 38.696 21.848 38.696C22.552 38.696 23.16 38.888 23.672 39.272C24.184 39.656 24.44 40.392 24.44 41.48C24.44 41.672 24.44 41.864 24.44 42.056C24.44 42.248 24.408 42.472 24.344 42.728C24.088 44.584 23.096 46.856 21.368 49.544C19.64 52.168 17.88 54.984 16.088 57.992C14.616 60.488 13.272 63.112 12.056 65.864C10.904 68.68 10.328 71.592 10.328 74.6C10.328 75.56 10.424 76.584 10.616 77.672C10.872 79.08 11.224 80.04 11.672 80.552C12.184 81.064 12.696 81.32 13.208 81.32C13.72 81.32 14.2 81.16 14.648 80.84C15.16 80.52 15.576 80.232 15.896 79.976C16.024 79.848 16.216 79.656 16.472 79.4C16.728 79.208 16.952 79.112 17.144 79.112C17.4 79.112 17.432 79.368 17.24 79.88C17.176 80.136 16.952 80.392 16.568 80.648C16.248 80.968 16.024 81.192 15.896 81.32C14.68 82.344 13.368 82.856 11.96 82.856ZM7.352 36.776C11.128 35.112 14.712 33.064 18.104 30.632C21.56 28.2 24.664 25.416 27.416 22.28C28.888 20.616 30.296 18.76 31.64 16.712C33.048 14.664 33.912 12.552 34.232 10.376C34.296 9.864 34.264 9.032 34.136 7.88C34.008 6.728 33.624 5.672 32.984 4.712C32.408 3.688 31.384 3.17599 29.912 3.17599C29.272 3.17599 28.536 3.304 27.704 3.56C26.872 3.816 25.912 4.296 24.824 5C23.416 5.832 22.136 6.888 20.984 8.168C19.896 9.448 18.872 10.856 17.912 12.392C16.568 14.632 15.416 16.744 14.456 18.728C13.496 20.712 12.504 22.952 11.48 25.448C10.776 27.112 10.072 28.904 9.368 30.824C8.664 32.744 7.992 34.728 7.352 36.776ZM36.38 68.36C34.268 68.36 32.54 67.72 31.196 66.44C29.916 65.16 28.956 63.528 28.316 61.544C27.676 59.496 27.356 57.352 27.356 55.112C27.356 53.768 27.484 52.488 27.74 51.272C27.996 50.056 28.252 49.064 28.508 48.296C28.444 47.848 28.38 47.4 28.316 46.952C28.316 46.44 28.316 45.928 28.316 45.416C28.316 43.56 28.508 41.544 28.892 39.368C29.276 37.192 29.884 35.112 30.716 33.128C31.612 31.144 32.7 29.544 33.98 28.328C35.324 27.048 36.956 26.408 38.876 26.408C40.54 26.408 42.172 27.112 43.772 28.52C45.372 29.864 46.78 31.848 47.996 34.472C48.7 35.944 49.18 37.544 49.436 39.272C49.756 40.936 49.916 42.632 49.916 44.36C49.916 46.728 49.66 49.096 49.148 51.464C48.7 53.768 48.028 55.944 47.132 57.992C46.492 59.464 45.628 61.032 44.54 62.696C43.516 64.296 42.332 65.64 40.988 66.728C39.644 67.816 38.108 68.36 36.38 68.36ZM36.86 66.248C39.036 66.248 41.052 64.744 42.908 61.736C44.252 59.624 45.212 57.224 45.788 54.536C46.364 51.784 46.652 49.032 46.652 46.28C46.652 44.232 46.524 42.248 46.268 40.328C46.012 38.408 45.628 36.552 45.116 34.76C44.668 33.16 43.9 31.752 42.812 30.536C41.788 29.256 40.316 28.712 38.396 28.904C36.86 29.032 35.516 29.8 34.364 31.208C33.212 32.616 32.316 34.216 31.676 36.008C31.1 37.736 30.812 39.24 30.812 40.52C30.812 41.224 30.908 41.768 31.1 42.152C31.292 41.64 31.772 40.808 32.54 39.656C33.308 38.44 34.172 37.352 35.132 36.392C36.092 35.368 36.988 34.856 37.82 34.856C38.524 34.856 38.876 35.144 38.876 35.72C38.044 35.784 37.212 36.296 36.38 37.256C35.612 38.152 34.876 39.24 34.172 40.52C33.532 41.8 32.988 43.08 32.54 44.36C32.156 45.576 31.868 46.536 31.676 47.24C31.612 47.496 31.516 47.816 31.388 48.2C31.26 48.584 31.196 48.968 31.196 49.352C31.196 49.8 31.452 50.536 31.964 51.56C32.476 52.52 33.308 53.416 34.46 54.248C35.612 55.08 37.18 55.496 39.164 55.496C39.74 55.496 40.348 55.432 40.988 55.304C41.628 55.176 42.236 55.048 42.812 54.92L43.484 54.728C43.612 54.728 43.676 54.792 43.676 54.92C43.676 55.112 43.452 55.368 43.004 55.688C42.62 55.944 42.268 56.136 41.948 56.264C41.052 56.712 40.06 56.936 38.972 56.936C37.372 56.936 35.836 56.456 34.364 55.496C32.956 54.472 31.708 53.32 30.62 52.04C30.556 52.552 30.524 53.064 30.524 53.576C30.524 54.024 30.524 54.472 30.524 54.92C30.524 58.632 31.164 61.448 32.444 63.368C33.724 65.288 35.196 66.248 36.86 66.248ZM70.6003 80.264C69.7683 80.264 68.9683 79.944 68.2003 79.304C67.4963 78.664 66.8883 78.024 66.3763 77.384C64.3283 75.016 62.6003 71.88 61.1923 67.976C59.8483 64.072 58.8243 59.784 58.1203 55.112C57.4163 50.376 57.0643 45.576 57.0643 40.712C57.0643 36.168 57.3523 31.752 57.9283 27.464C58.5683 23.176 59.5283 19.272 60.8083 15.752C62.0883 12.232 63.6883 9.416 65.6083 7.304C68.1043 4.488 70.5043 3.08 72.8083 3.08C74.2163 3.08 75.3363 3.72 76.1683 5C77.0643 6.216 77.5123 8.168 77.5123 10.856C77.5123 13.416 77.0003 16.68 75.9763 20.648C75.0163 24.552 73.3523 29.224 70.9843 34.664C70.1523 36.456 69.2563 38.248 68.2963 40.04C67.4003 41.832 66.4403 43.72 65.4163 45.704C65.0323 46.472 64.7123 46.856 64.4563 46.856C64.3283 46.856 64.2643 46.728 64.2643 46.472C64.2643 45.96 64.4883 45.288 64.9363 44.456C70.7603 33.512 73.6723 22.632 73.6723 11.816C73.6723 7.528 72.7763 5.384 70.9843 5.384C69.7043 5.384 68.2003 6.632 66.4723 9.128C64.1043 12.648 62.4723 16.84 61.5763 21.704C60.6803 26.504 60.2323 31.368 60.2323 36.296C60.2323 40.008 60.3923 43.624 60.7123 47.144C61.0323 50.6 61.4163 53.736 61.8643 56.552C62.0563 57.768 62.3443 59.4 62.7283 61.448C63.1123 63.496 63.6243 65.64 64.2643 67.88C64.9043 70.184 65.6083 72.264 66.3763 74.12C67.2083 76.04 68.1043 77.416 69.0643 78.248C69.3203 78.44 69.5763 78.632 69.8323 78.824C70.1523 79.08 70.5043 79.24 70.8883 79.304C71.4643 79.304 71.7523 79.464 71.7523 79.784C71.7523 80.104 71.3683 80.264 70.6003 80.264ZM84.9973 32.936C84.4213 32.936 84.0053 32.648 83.7493 32.072C83.5572 31.432 83.4612 30.984 83.4612 30.728C83.4612 29.704 83.7492 28.744 84.3252 27.848C84.9652 26.888 85.6693 26.376 86.4373 26.312H86.7252C87.4933 26.312 88.0053 26.504 88.2613 26.888C88.5812 27.208 88.7412 27.624 88.7412 28.136C88.7412 29.096 88.3252 30.152 87.4932 31.304C86.6613 32.392 85.8293 32.936 84.9973 32.936ZM80.1012 67.304C77.9252 67.304 76.4532 66.472 75.6852 64.808C74.9172 63.144 74.5332 61.224 74.5332 59.048C74.5332 56.872 74.7572 54.6 75.2052 52.232C75.7172 49.8 76.2612 47.592 76.8372 45.608C77.4772 43.624 77.9572 42.216 78.2772 41.384C78.9812 39.912 79.6852 38.664 80.3892 37.64C81.0932 36.552 81.8612 36.008 82.6933 36.008C83.2692 36.008 83.6852 36.232 83.9412 36.68C84.2612 37.064 84.4212 37.576 84.4212 38.216C84.4212 39.496 84.0692 40.808 83.3653 42.152C82.6613 43.432 82.0213 44.648 81.4452 45.8C80.1652 48.424 79.1412 50.76 78.3732 52.808C77.6692 54.856 77.3172 57.416 77.3172 60.488C77.3172 62.472 77.5092 63.912 77.8932 64.808C78.3412 65.704 78.9492 66.152 79.7172 66.152C80.7413 66.152 81.9253 65.576 83.2692 64.424C84.6132 63.208 85.9892 61.608 87.3972 59.624C88.8052 57.64 90.0532 55.496 91.1413 53.192C91.8453 51.72 92.3893 50.984 92.7733 50.984C93.0293 50.984 93.1572 51.24 93.1572 51.752C93.1572 52.456 92.8693 53.48 92.2933 54.824C91.7813 56.104 91.1413 57.416 90.3733 58.76C89.6693 60.104 88.9973 61.16 88.3573 61.928C87.2692 63.336 86.0212 64.584 84.6132 65.672C83.2052 66.76 81.7012 67.304 80.1012 67.304ZM96.7153 69.512C95.1793 69.512 94.0273 68.84 93.2593 67.496C92.4913 66.216 92.1073 64.584 92.1073 62.6C92.1073 61.192 92.3953 59.432 92.9713 57.32C93.5473 55.208 94.3473 53 95.3713 50.696C96.3953 48.392 97.5473 46.248 98.8273 44.264C100.107 42.216 101.419 40.584 102.763 39.368C104.171 38.088 105.547 37.448 106.891 37.448C107.979 37.448 108.747 37.864 109.195 38.696C109.707 39.464 109.963 40.296 109.963 41.192C109.963 41.96 109.803 42.664 109.483 43.304C109.227 43.88 108.843 44.168 108.331 44.168C107.819 44.168 107.435 43.944 107.179 43.496C106.987 42.984 106.795 42.472 106.603 41.96C106.475 41.448 106.123 41.192 105.547 41.192C104.395 41.192 103.243 41.928 102.091 43.4C100.939 44.872 99.8833 46.728 98.9233 48.968C97.9633 51.208 97.1953 53.544 96.6193 55.976C96.0433 58.344 95.7553 60.456 95.7553 62.312C95.7553 63.656 95.9153 64.712 96.2353 65.48C96.6193 66.312 97.2273 66.728 98.0593 66.728C99.1473 66.728 100.235 66.056 101.323 64.712C102.475 63.304 103.595 61.512 104.683 59.336C105.771 57.096 106.763 54.76 107.659 52.328C108.619 49.896 109.419 47.624 110.059 45.512C110.763 43.336 111.307 41.608 111.691 40.328C112.203 35.848 112.811 31.336 113.515 26.792C114.283 22.248 115.403 17.832 116.875 13.544C117.067 12.84 117.355 12.232 117.739 11.72C118.187 11.208 118.635 10.952 119.083 10.952C119.595 10.952 120.011 11.304 120.331 12.008C120.715 12.712 120.907 13.512 120.907 14.408C120.907 15.112 120.779 15.848 120.523 16.616C120.267 17.384 119.947 18.408 119.563 19.688C119.115 21.224 118.539 23.272 117.835 25.832C117.195 28.328 116.523 31.176 115.819 34.376C115.115 37.512 114.507 40.872 113.995 44.456C113.547 47.976 113.323 51.496 113.323 55.016C113.323 57.704 113.515 59.592 113.899 60.68C114.283 61.768 114.795 62.312 115.435 62.312C116.139 62.312 116.907 61.864 117.739 60.968C118.635 60.072 119.499 58.984 120.331 57.704C121.227 56.424 122.027 55.144 122.731 53.864C123.435 52.52 123.979 51.464 124.363 50.696C125.067 49.288 125.611 48.584 125.995 48.584C126.251 48.584 126.379 48.872 126.379 49.448C126.379 49.896 126.283 50.376 126.091 50.888C125.707 51.72 125.451 52.36 125.323 52.808C125.195 53.192 125.035 53.576 124.843 53.96C124.715 54.344 124.395 54.952 123.883 55.784C123.435 56.552 122.731 57.608 121.771 58.952C120.811 60.232 119.723 61.416 118.507 62.504C117.291 63.528 116.075 64.04 114.859 64.04C113.643 64.04 112.715 63.528 112.075 62.504C111.499 61.48 111.115 60.168 110.923 58.568C110.795 56.904 110.731 55.208 110.731 53.48C110.731 51.368 110.827 49.128 111.019 46.76C110.571 48.296 109.963 50.12 109.195 52.232C108.427 54.28 107.563 56.36 106.603 58.472C105.643 60.584 104.619 62.504 103.531 64.232C102.635 65.64 101.643 66.856 100.555 67.88C99.4673 68.968 98.1873 69.512 96.7153 69.512ZM128.569 64.232C127.417 64.232 126.585 63.752 126.073 62.792C125.561 61.768 125.305 60.584 125.305 59.24C125.305 57.512 125.593 55.496 126.169 53.192C126.809 50.888 127.641 48.52 128.665 46.088C129.689 43.592 130.841 41.32 132.121 39.272C133.465 37.16 134.873 35.464 136.345 34.184C137.817 32.84 139.257 32.168 140.665 32.168C141.945 32.168 143.033 32.744 143.929 33.896C144.889 34.984 145.369 36.232 145.369 37.64C145.369 38.472 145.241 39.176 144.985 39.752C144.729 40.264 144.441 40.52 144.121 40.52C143.865 40.52 143.641 40.328 143.449 39.944C142.809 38.472 142.105 37.416 141.337 36.776C140.633 36.136 139.897 35.816 139.129 35.816C137.849 35.816 136.569 36.552 135.289 38.024C134.073 39.432 133.081 41.064 132.313 42.92C131.673 44.328 131.065 46.024 130.489 48.008C129.977 49.928 129.529 51.848 129.145 53.768C128.825 55.624 128.665 57.16 128.665 58.376C128.665 60.552 129.177 61.64 130.201 61.64C131.481 61.64 133.113 60.232 135.097 57.416C136.569 55.368 137.881 53 139.033 50.312C140.249 47.624 141.273 45.288 142.105 43.304C142.425 42.664 142.777 42.248 143.161 42.056C143.545 41.864 143.897 41.768 144.217 41.768C144.985 41.768 145.465 42.088 145.657 42.728C145.913 43.368 146.041 43.912 146.041 44.36C146.041 46.024 145.881 47.528 145.561 48.872C145.241 50.152 145.081 51.72 145.081 53.576C145.081 54.92 145.177 56.168 145.369 57.32C145.625 58.408 146.041 58.952 146.617 58.952C147.321 58.952 148.217 58.056 149.305 56.264C149.561 55.752 149.945 55.496 150.457 55.496C151.033 55.496 151.321 55.784 151.321 56.36C151.321 57.192 150.745 58.088 149.593 59.048C148.441 59.944 147.289 60.392 146.137 60.392C144.601 60.392 143.513 59.752 142.873 58.472C141.785 56.36 141.241 54.472 141.241 52.808C141.241 51.08 141.209 49.896 141.145 49.256C140.825 50.024 140.217 51.24 139.321 52.904C138.425 54.504 137.369 56.2 136.153 57.992C134.937 59.72 133.657 61.192 132.313 62.408C130.969 63.624 129.721 64.232 128.569 64.232ZM153.787 105.32C151.291 105.32 149.275 104.648 147.739 103.304C146.203 102.024 145.435 100.296 145.435 98.12C145.435 97.032 145.659 95.816 146.107 94.472C146.555 93.192 147.259 91.848 148.219 90.44C149.691 88.264 151.803 85.928 154.555 83.432C157.371 81 160.795 78.696 164.827 76.52C168.923 74.408 173.595 72.808 178.843 71.72C178.907 71.016 178.939 70.28 178.939 69.512C178.939 68.808 178.939 68.104 178.939 67.4C178.939 62.216 178.587 57.512 177.883 53.288C177.179 49 176.379 45.32 175.483 42.248C172.923 48.584 170.651 53.864 168.667 58.088C166.683 62.248 165.595 65.736 165.403 68.552C165.339 69 165.051 69.48 164.539 69.992C164.091 70.568 163.579 70.856 163.003 70.856C162.555 70.856 162.107 70.536 161.659 69.896C161.275 69.32 161.083 68.328 161.083 66.92C161.083 65.448 161.243 63.528 161.563 61.16C161.883 58.792 162.043 56.52 162.043 54.344C162.043 52.296 161.755 50.504 161.179 48.968C160.603 47.432 159.483 46.632 157.819 46.568C156.475 46.568 155.227 47.208 154.075 48.488C153.819 48.744 153.627 48.872 153.499 48.872C153.307 48.872 153.211 48.712 153.211 48.392C153.211 48.072 153.307 47.72 153.499 47.336C154.011 46.056 154.939 45.16 156.283 44.648C157.691 44.136 158.843 43.88 159.739 43.88C162.043 43.88 163.611 44.52 164.443 45.8C165.339 47.016 165.787 48.648 165.787 50.696C165.787 52.552 165.531 54.696 165.019 57.128C164.571 59.496 164.091 61.992 163.579 64.616C164.859 62.248 166.491 58.952 168.475 54.728C170.459 50.504 172.635 45.736 175.003 40.424L174.139 37.928V37.64C174.139 37 174.331 36.52 174.715 36.2C175.163 35.88 175.611 35.72 176.059 35.72C176.443 35.72 176.827 35.816 177.211 36.008C177.595 36.2 177.851 36.488 177.979 36.872C178.747 38.6 179.387 40.968 179.899 43.976C180.475 46.984 180.891 50.248 181.147 53.768C181.467 57.224 181.627 60.648 181.627 64.04C181.627 66.6 181.531 69 181.339 71.24C182.939 70.92 184.539 70.696 186.139 70.568C187.739 70.44 189.435 70.312 191.227 70.184H191.611C192.187 70.184 192.475 70.312 192.475 70.568C192.475 71.08 191.803 71.4 190.459 71.528C188.923 71.656 187.355 71.816 185.755 72.008C184.219 72.264 182.651 72.584 181.051 72.968C179.707 80.328 177.595 86.216 174.715 90.632C171.899 95.112 168.987 98.472 165.979 100.712C163.803 102.312 161.659 103.464 159.547 104.168C157.499 104.936 155.579 105.32 153.787 105.32ZM153.019 103.304C154.107 103.304 155.355 103.08 156.763 102.632C158.235 102.184 159.771 101.48 161.371 100.52C166.491 97.512 170.459 93.704 173.275 89.096C176.091 84.552 177.883 79.368 178.651 73.544C175.259 74.44 171.835 75.72 168.379 77.384C164.923 79.112 161.691 81.096 158.683 83.336C155.739 85.64 153.211 88.168 151.099 90.92C150.011 92.328 149.211 93.672 148.699 94.952C148.187 96.232 147.931 97.416 147.931 98.504C147.931 99.976 148.379 101.128 149.275 101.96C150.171 102.856 151.419 103.304 153.019 103.304ZM197.448 69.128C196.616 69.128 196.008 68.84 195.624 68.264C195.304 67.752 195.144 67.24 195.144 66.728C195.144 65.704 195.592 64.648 196.488 63.56C196.808 63.176 197.256 62.664 197.832 62.024C198.408 61.32 198.824 60.776 199.08 60.392C198.248 59.24 197.128 58.184 195.72 57.224C194.312 56.264 192.936 55.048 191.592 53.576C190.376 52.232 189.352 50.6 188.52 48.68C187.688 46.696 187.272 44.808 187.272 43.016C187.272 40.904 187.752 38.888 188.712 36.968C189.672 35.048 190.856 33.384 192.264 31.976C193.8 30.44 195.496 29.224 197.352 28.328C199.208 27.368 201.128 26.888 203.112 26.888C204.456 26.888 205.768 27.208 207.048 27.848C208.328 28.488 208.968 29.544 208.968 31.016C208.968 32.744 208.584 33.608 207.816 33.608C207.496 33.608 207.272 33.288 207.144 32.648C207.08 32.328 207.048 32.008 207.048 31.688C207.048 31.304 207.048 31.048 207.048 30.92C207.048 30.28 206.76 29.736 206.184 29.288C205.608 28.776 204.968 28.52 204.264 28.52C202.792 28.52 201.16 29.096 199.368 30.248C197.576 31.4 196.072 32.744 194.856 34.28C193.64 35.88 192.648 37.704 191.88 39.752C191.112 41.736 190.728 43.656 190.728 45.512C190.728 47.816 191.24 49.8 192.264 51.464C193.288 53.128 194.504 54.6 195.912 55.88C197.384 57.16 198.696 58.408 199.848 59.624C200.424 58.92 201.032 58.248 201.672 57.608C202.376 56.968 203.016 56.456 203.592 56.072C204.104 55.752 204.456 55.592 204.648 55.592C204.84 55.592 204.936 55.688 204.936 55.88C204.936 56.2 204.648 56.584 204.072 57.032C203.944 57.16 203.56 57.544 202.92 58.184C202.344 58.76 201.64 59.496 200.808 60.392C201.32 60.968 201.736 61.576 202.056 62.216C202.376 62.856 202.536 63.56 202.536 64.328C202.536 65.352 201.96 66.408 200.808 67.496C199.656 68.584 198.536 69.128 197.448 69.128ZM198.504 66.536C198.952 66.536 199.368 66.12 199.752 65.288C200.2 64.52 200.424 63.752 200.424 62.984C200.424 62.6 200.36 62.248 200.232 61.928C200.104 61.608 200.008 61.416 199.944 61.352C199.432 61.992 198.952 62.696 198.504 63.464C198.12 64.168 197.928 64.808 197.928 65.384C197.928 66.152 198.12 66.536 198.504 66.536Z"  fill="#3f51b5"/>
</svg>
